<svg width="22" height="22" viewBox="0 0 22 22" fill="none" xmlns="http://www.w3.org/2000/svg">
<mask id="path-1-outside-1_4760_732" maskUnits="userSpaceOnUse" x="0" y="0" width="22" height="22" fill="black">
<rect fill="white" width="22" height="22"/>
<path d="M16.9933 11.0487C17.7815 10.7755 18.5928 10.1469 18.6257 10.1223C18.791 9.99003 18.8228 9.74979 18.6903 9.58723C18.5652 9.42331 18.3281 9.3917 18.164 9.52243C18.1554 9.52243 17.4074 10.0934 16.7431 10.3337C15.9201 10.6227 14.6677 10.65 14.0204 10.643C13.9874 10.3583 13.9269 10.0821 13.8203 9.82746C14.4331 9.4793 15.5607 8.78479 16.1992 8.04399C16.7458 7.41111 17.1342 6.46192 17.1484 6.42466C17.2261 6.2262 17.1342 6.0047 16.9369 5.92997C16.747 5.84959 16.5241 5.94148 16.4494 6.13859C16.4437 6.14153 16.0811 7.00877 15.6266 7.54952C15.0599 8.20678 14.0014 8.85117 13.4347 9.17178C13.2649 8.946 13.0635 8.74618 12.8393 8.57481C13.1958 7.96925 13.8258 6.80285 14.0086 5.83785C14.1653 5.01802 14.0258 4.00132 14.0215 3.9609C13.9886 3.75228 13.7973 3.60574 13.5887 3.63871C13.3859 3.66467 13.2392 3.85591 13.271 4.06296C13.2665 4.07018 13.3886 5.00064 13.2651 5.69831C13.1055 6.54117 12.5203 7.61838 12.1879 8.18352C11.9362 8.07695 11.663 8.01802 11.3812 7.98212C11.3898 7.27881 11.3579 5.95277 11.0373 5.0266C10.7655 4.23568 10.1414 3.4215 10.1168 3.38989C9.98449 3.22597 9.74719 3.19143 9.58169 3.32374C9.41777 3.44747 9.38458 3.68612 9.51689 3.85004C9.51689 3.85885 10.0836 4.60664 10.3223 5.27248C10.604 6.09095 10.63 7.33074 10.6214 7.98212C10.3351 8.01802 10.0576 8.07989 9.8016 8.18917C9.45638 7.57345 8.76751 6.44882 8.02829 5.80895C7.39835 5.25961 6.45051 4.86833 6.41326 4.85252C6.21615 4.77643 5.9933 4.86697 5.91698 5.0625C5.83773 5.25081 5.92692 5.47388 6.12267 5.54997C6.12719 5.55855 6.99284 5.92252 7.5336 6.37996C8.19086 6.94939 8.83367 8.01509 9.15157 8.58181C8.92714 8.75295 8.72868 8.95142 8.56205 9.1772C7.96078 8.81911 6.78422 8.17765 5.81493 7.99206C4.9951 7.83107 3.97975 7.96609 3.93798 7.97196C3.72958 8.00357 3.58282 8.19346 3.61443 8.4005C3.6404 8.60619 3.83028 8.75295 4.03732 8.7227C4.04455 8.72563 4.97659 8.60755 5.67404 8.73421C6.52841 8.89813 7.61849 9.50075 8.17663 9.83311C8.073 10.0862 8.01249 10.3596 7.97952 10.6414C7.28478 10.6313 5.93143 10.6629 4.99239 10.9896C4.20418 11.2601 3.39023 11.8855 3.35704 11.9101C3.19176 12.0424 3.15993 12.2824 3.29224 12.445C3.41597 12.6091 3.65462 12.6421 3.81854 12.5111C3.82734 12.5111 4.57514 11.9417 5.2394 11.7031C6.0721 11.4141 7.34213 11.3924 7.98359 11.401C8.02107 11.6798 8.08429 11.9505 8.19063 12.2007C7.58372 12.5385 6.42725 13.2418 5.77857 13.9954C5.2306 14.6254 4.83954 15.5746 4.82373 15.6121C4.74764 15.8089 4.83954 16.0318 5.03529 16.1081C5.22518 16.1874 5.44667 16.0966 5.52434 15.9011C5.53021 15.8966 5.89553 15.0309 6.35139 14.4901C6.93098 13.8198 8.02829 13.1625 8.58485 12.8505C8.75171 13.0677 8.94588 13.2616 9.16444 13.4271C8.81199 14.0198 8.15202 15.2206 7.96349 16.2061C7.80522 17.0259 7.94182 18.0426 7.94611 18.083C7.97907 18.293 8.17054 18.4382 8.37758 18.408C8.58169 18.382 8.72845 18.1907 8.69684 17.9821C8.69978 17.9765 8.58169 17.0444 8.70678 16.347C8.87228 15.4811 9.48912 14.3678 9.81696 13.8171C10.0658 13.9221 10.3347 13.9812 10.611 14.0171C10.6009 14.7046 10.6311 16.0781 10.9619 17.0259C11.2351 17.8155 11.8623 18.6265 11.8867 18.6611C12.019 18.8252 12.2577 18.8566 12.4216 18.7243C12.5858 18.6005 12.6171 18.3619 12.4864 18.198C12.4848 18.1908 11.917 17.4414 11.6765 16.7769C11.3832 15.9399 11.3629 14.6554 11.3715 14.0183C11.6478 13.9839 11.9181 13.9248 12.1683 13.8214C12.5063 14.4269 13.2125 15.5859 13.9662 16.2359C14.5991 16.7825 15.5483 17.1722 15.5855 17.1883C15.784 17.2644 16.0055 17.1725 16.0802 16.9767C16.1606 16.7852 16.0687 16.5653 15.8745 16.489C15.8702 16.4804 15.003 16.118 14.4607 15.6635C13.7935 15.0869 13.1362 13.9952 12.824 13.436C13.0441 13.2705 13.2383 13.0747 13.4081 12.8575C14.0035 13.2113 15.1958 13.8613 16.1753 14.0472C16.9951 14.2052 18.0118 14.0672 18.0522 14.0614C18.2622 14.0298 18.4087 13.8401 18.3758 13.6315C18.35 13.4271 18.1602 13.282 17.9531 13.3122C17.9445 13.3077 17.0138 13.4287 16.3164 13.305C15.4591 13.1424 14.3604 12.5371 13.8036 12.2077C13.9118 11.9562 13.9777 11.6843 14.0152 11.4023C14.7122 11.4111 16.0585 11.3752 16.9933 11.0487ZM11.0003 13.1616C9.80793 13.1616 8.83863 12.1908 8.83863 10.9984C8.83863 9.80601 9.80793 8.83672 11.0003 8.83672C12.1924 8.83672 13.162 9.80601 13.162 10.9984C13.162 12.1908 12.1924 13.1616 11.0003 13.1616Z"/>
<path d="M10.9986 1C5.48589 1 1 5.48589 1 10.9986C1 16.5128 5.48589 21 10.9986 21C16.5128 21 21 16.5128 21 10.9986C21.0002 5.48566 16.513 1 10.9986 1ZM10.9986 20.0535C6.00655 20.0535 1.94355 15.9921 1.94355 10.9984C1.94355 6.00497 6.00655 1.94333 10.9986 1.94333C15.9923 1.94333 20.0553 6.00497 20.0553 10.9984C20.0553 15.9921 15.9923 20.0535 10.9986 20.0535Z"/>
<path d="M11.0021 9.90272C10.3807 9.90272 9.87743 10.4046 9.87743 11.0274C9.87743 11.6458 10.3807 12.1493 11.0021 12.1493C11.6232 12.1493 12.1267 11.646 12.1267 11.0274C12.1267 10.4046 11.6234 9.90272 11.0021 9.90272Z"/>
</mask>
<path d="M16.9933 11.0487C17.7815 10.7755 18.5928 10.1469 18.6257 10.1223C18.791 9.99003 18.8228 9.74979 18.6903 9.58723C18.5652 9.42331 18.3281 9.3917 18.164 9.52243C18.1554 9.52243 17.4074 10.0934 16.7431 10.3337C15.9201 10.6227 14.6677 10.65 14.0204 10.643C13.9874 10.3583 13.9269 10.0821 13.8203 9.82746C14.4331 9.4793 15.5607 8.78479 16.1992 8.04399C16.7458 7.41111 17.1342 6.46192 17.1484 6.42466C17.2261 6.2262 17.1342 6.0047 16.9369 5.92997C16.747 5.84959 16.5241 5.94148 16.4494 6.13859C16.4437 6.14153 16.0811 7.00877 15.6266 7.54952C15.0599 8.20678 14.0014 8.85117 13.4347 9.17178C13.2649 8.946 13.0635 8.74618 12.8393 8.57481C13.1958 7.96925 13.8258 6.80285 14.0086 5.83785C14.1653 5.01802 14.0258 4.00132 14.0215 3.9609C13.9886 3.75228 13.7973 3.60574 13.5887 3.63871C13.3859 3.66467 13.2392 3.85591 13.271 4.06296C13.2665 4.07018 13.3886 5.00064 13.2651 5.69831C13.1055 6.54117 12.5203 7.61838 12.1879 8.18352C11.9362 8.07695 11.663 8.01802 11.3812 7.98212C11.3898 7.27881 11.3579 5.95277 11.0373 5.0266C10.7655 4.23568 10.1414 3.4215 10.1168 3.38989C9.98449 3.22597 9.74719 3.19143 9.58169 3.32374C9.41777 3.44747 9.38458 3.68612 9.51689 3.85004C9.51689 3.85885 10.0836 4.60664 10.3223 5.27248C10.604 6.09095 10.63 7.33074 10.6214 7.98212C10.3351 8.01802 10.0576 8.07989 9.8016 8.18917C9.45638 7.57345 8.76751 6.44882 8.02829 5.80895C7.39835 5.25961 6.45051 4.86833 6.41326 4.85252C6.21615 4.77643 5.9933 4.86697 5.91698 5.0625C5.83773 5.25081 5.92692 5.47388 6.12267 5.54997C6.12719 5.55855 6.99284 5.92252 7.5336 6.37996C8.19086 6.94939 8.83367 8.01509 9.15157 8.58181C8.92714 8.75295 8.72868 8.95142 8.56205 9.1772C7.96078 8.81911 6.78422 8.17765 5.81493 7.99206C4.9951 7.83107 3.97975 7.96609 3.93798 7.97196C3.72958 8.00357 3.58282 8.19346 3.61443 8.4005C3.6404 8.60619 3.83028 8.75295 4.03732 8.7227C4.04455 8.72563 4.97659 8.60755 5.67404 8.73421C6.52841 8.89813 7.61849 9.50075 8.17663 9.83311C8.073 10.0862 8.01249 10.3596 7.97952 10.6414C7.28478 10.6313 5.93143 10.6629 4.99239 10.9896C4.20418 11.2601 3.39023 11.8855 3.35704 11.9101C3.19176 12.0424 3.15993 12.2824 3.29224 12.445C3.41597 12.6091 3.65462 12.6421 3.81854 12.5111C3.82734 12.5111 4.57514 11.9417 5.2394 11.7031C6.0721 11.4141 7.34213 11.3924 7.98359 11.401C8.02107 11.6798 8.08429 11.9505 8.19063 12.2007C7.58372 12.5385 6.42725 13.2418 5.77857 13.9954C5.2306 14.6254 4.83954 15.5746 4.82373 15.6121C4.74764 15.8089 4.83954 16.0318 5.03529 16.1081C5.22518 16.1874 5.44667 16.0966 5.52434 15.9011C5.53021 15.8966 5.89553 15.0309 6.35139 14.4901C6.93098 13.8198 8.02829 13.1625 8.58485 12.8505C8.75171 13.0677 8.94588 13.2616 9.16444 13.4271C8.81199 14.0198 8.15202 15.2206 7.96349 16.2061C7.80522 17.0259 7.94182 18.0426 7.94611 18.083C7.97907 18.293 8.17054 18.4382 8.37758 18.408C8.58169 18.382 8.72845 18.1907 8.69684 17.9821C8.69978 17.9765 8.58169 17.0444 8.70678 16.347C8.87228 15.4811 9.48912 14.3678 9.81696 13.8171C10.0658 13.9221 10.3347 13.9812 10.611 14.0171C10.6009 14.7046 10.6311 16.0781 10.9619 17.0259C11.2351 17.8155 11.8623 18.6265 11.8867 18.6611C12.019 18.8252 12.2577 18.8566 12.4216 18.7243C12.5858 18.6005 12.6171 18.3619 12.4864 18.198C12.4848 18.1908 11.917 17.4414 11.6765 16.7769C11.3832 15.9399 11.3629 14.6554 11.3715 14.0183C11.6478 13.9839 11.9181 13.9248 12.1683 13.8214C12.5063 14.4269 13.2125 15.5859 13.9662 16.2359C14.5991 16.7825 15.5483 17.1722 15.5855 17.1883C15.784 17.2644 16.0055 17.1725 16.0802 16.9767C16.1606 16.7852 16.0687 16.5653 15.8745 16.489C15.8702 16.4804 15.003 16.118 14.4607 15.6635C13.7935 15.0869 13.1362 13.9952 12.824 13.436C13.0441 13.2705 13.2383 13.0747 13.4081 12.8575C14.0035 13.2113 15.1958 13.8613 16.1753 14.0472C16.9951 14.2052 18.0118 14.0672 18.0522 14.0614C18.2622 14.0298 18.4087 13.8401 18.3758 13.6315C18.35 13.4271 18.1602 13.282 17.9531 13.3122C17.9445 13.3077 17.0138 13.4287 16.3164 13.305C15.4591 13.1424 14.3604 12.5371 13.8036 12.2077C13.9118 11.9562 13.9777 11.6843 14.0152 11.4023C14.7122 11.4111 16.0585 11.3752 16.9933 11.0487ZM11.0003 13.1616C9.80793 13.1616 8.83863 12.1908 8.83863 10.9984C8.83863 9.80601 9.80793 8.83672 11.0003 8.83672C12.1924 8.83672 13.162 9.80601 13.162 10.9984C13.162 12.1908 12.1924 13.1616 11.0003 13.1616Z" fill="#525252"/>
<path d="M10.9986 1C5.48589 1 1 5.48589 1 10.9986C1 16.5128 5.48589 21 10.9986 21C16.5128 21 21 16.5128 21 10.9986C21.0002 5.48566 16.513 1 10.9986 1ZM10.9986 20.0535C6.00655 20.0535 1.94355 15.9921 1.94355 10.9984C1.94355 6.00497 6.00655 1.94333 10.9986 1.94333C15.9923 1.94333 20.0553 6.00497 20.0553 10.9984C20.0553 15.9921 15.9923 20.0535 10.9986 20.0535Z" fill="#525252"/>
<path d="M11.0021 9.90272C10.3807 9.90272 9.87743 10.4046 9.87743 11.0274C9.87743 11.6458 10.3807 12.1493 11.0021 12.1493C11.6232 12.1493 12.1267 11.646 12.1267 11.0274C12.1267 10.4046 11.6234 9.90272 11.0021 9.90272Z" fill="#525252"/>
<path d="M16.9933 11.0487C17.7815 10.7755 18.5928 10.1469 18.6257 10.1223C18.791 9.99003 18.8228 9.74979 18.6903 9.58723C18.5652 9.42331 18.3281 9.3917 18.164 9.52243C18.1554 9.52243 17.4074 10.0934 16.7431 10.3337C15.9201 10.6227 14.6677 10.65 14.0204 10.643C13.9874 10.3583 13.9269 10.0821 13.8203 9.82746C14.4331 9.4793 15.5607 8.78479 16.1992 8.04399C16.7458 7.41111 17.1342 6.46192 17.1484 6.42466C17.2261 6.2262 17.1342 6.0047 16.9369 5.92997C16.747 5.84959 16.5241 5.94148 16.4494 6.13859C16.4437 6.14153 16.0811 7.00877 15.6266 7.54952C15.0599 8.20678 14.0014 8.85117 13.4347 9.17178C13.2649 8.946 13.0635 8.74618 12.8393 8.57481C13.1958 7.96925 13.8258 6.80285 14.0086 5.83785C14.1653 5.01802 14.0258 4.00132 14.0215 3.9609C13.9886 3.75228 13.7973 3.60574 13.5887 3.63871C13.3859 3.66467 13.2392 3.85591 13.271 4.06296C13.2665 4.07018 13.3886 5.00064 13.2651 5.69831C13.1055 6.54117 12.5203 7.61838 12.1879 8.18352C11.9362 8.07695 11.663 8.01802 11.3812 7.98212C11.3898 7.27881 11.3579 5.95277 11.0373 5.0266C10.7655 4.23568 10.1414 3.4215 10.1168 3.38989C9.98449 3.22597 9.74719 3.19143 9.58169 3.32374C9.41777 3.44747 9.38458 3.68612 9.51689 3.85004C9.51689 3.85885 10.0836 4.60664 10.3223 5.27248C10.604 6.09095 10.63 7.33074 10.6214 7.98212C10.3351 8.01802 10.0576 8.07989 9.8016 8.18917C9.45638 7.57345 8.76751 6.44882 8.02829 5.80895C7.39835 5.25961 6.45051 4.86833 6.41326 4.85252C6.21615 4.77643 5.9933 4.86697 5.91698 5.0625C5.83773 5.25081 5.92692 5.47388 6.12267 5.54997C6.12719 5.55855 6.99284 5.92252 7.5336 6.37996C8.19086 6.94939 8.83367 8.01509 9.15157 8.58181C8.92714 8.75295 8.72868 8.95142 8.56205 9.1772C7.96078 8.81911 6.78422 8.17765 5.81493 7.99206C4.9951 7.83107 3.97975 7.96609 3.93798 7.97196C3.72958 8.00357 3.58282 8.19346 3.61443 8.4005C3.6404 8.60619 3.83028 8.75295 4.03732 8.7227C4.04455 8.72563 4.97659 8.60755 5.67404 8.73421C6.52841 8.89813 7.61849 9.50075 8.17663 9.83311C8.073 10.0862 8.01249 10.3596 7.97952 10.6414C7.28478 10.6313 5.93143 10.6629 4.99239 10.9896C4.20418 11.2601 3.39023 11.8855 3.35704 11.9101C3.19176 12.0424 3.15993 12.2824 3.29224 12.445C3.41597 12.6091 3.65462 12.6421 3.81854 12.5111C3.82734 12.5111 4.57514 11.9417 5.2394 11.7031C6.0721 11.4141 7.34213 11.3924 7.98359 11.401C8.02107 11.6798 8.08429 11.9505 8.19063 12.2007C7.58372 12.5385 6.42725 13.2418 5.77857 13.9954C5.2306 14.6254 4.83954 15.5746 4.82373 15.6121C4.74764 15.8089 4.83954 16.0318 5.03529 16.1081C5.22518 16.1874 5.44667 16.0966 5.52434 15.9011C5.53021 15.8966 5.89553 15.0309 6.35139 14.4901C6.93098 13.8198 8.02829 13.1625 8.58485 12.8505C8.75171 13.0677 8.94588 13.2616 9.16444 13.4271C8.81199 14.0198 8.15202 15.2206 7.96349 16.2061C7.80522 17.0259 7.94182 18.0426 7.94611 18.083C7.97907 18.293 8.17054 18.4382 8.37758 18.408C8.58169 18.382 8.72845 18.1907 8.69684 17.9821C8.69978 17.9765 8.58169 17.0444 8.70678 16.347C8.87228 15.4811 9.48912 14.3678 9.81696 13.8171C10.0658 13.9221 10.3347 13.9812 10.611 14.0171C10.6009 14.7046 10.6311 16.0781 10.9619 17.0259C11.2351 17.8155 11.8623 18.6265 11.8867 18.6611C12.019 18.8252 12.2577 18.8566 12.4216 18.7243C12.5858 18.6005 12.6171 18.3619 12.4864 18.198C12.4848 18.1908 11.917 17.4414 11.6765 16.7769C11.3832 15.9399 11.3629 14.6554 11.3715 14.0183C11.6478 13.9839 11.9181 13.9248 12.1683 13.8214C12.5063 14.4269 13.2125 15.5859 13.9662 16.2359C14.5991 16.7825 15.5483 17.1722 15.5855 17.1883C15.784 17.2644 16.0055 17.1725 16.0802 16.9767C16.1606 16.7852 16.0687 16.5653 15.8745 16.489C15.8702 16.4804 15.003 16.118 14.4607 15.6635C13.7935 15.0869 13.1362 13.9952 12.824 13.436C13.0441 13.2705 13.2383 13.0747 13.4081 12.8575C14.0035 13.2113 15.1958 13.8613 16.1753 14.0472C16.9951 14.2052 18.0118 14.0672 18.0522 14.0614C18.2622 14.0298 18.4087 13.8401 18.3758 13.6315C18.35 13.4271 18.1602 13.282 17.9531 13.3122C17.9445 13.3077 17.0138 13.4287 16.3164 13.305C15.4591 13.1424 14.3604 12.5371 13.8036 12.2077C13.9118 11.9562 13.9777 11.6843 14.0152 11.4023C14.7122 11.4111 16.0585 11.3752 16.9933 11.0487ZM11.0003 13.1616C9.80793 13.1616 8.83863 12.1908 8.83863 10.9984C8.83863 9.80601 9.80793 8.83672 11.0003 8.83672C12.1924 8.83672 13.162 9.80601 13.162 10.9984C13.162 12.1908 12.1924 13.1616 11.0003 13.1616Z" stroke="#525252" stroke-width="0.4" mask="url(#path-1-outside-1_4760_732)"/>
<path d="M10.9986 1C5.48589 1 1 5.48589 1 10.9986C1 16.5128 5.48589 21 10.9986 21C16.5128 21 21 16.5128 21 10.9986C21.0002 5.48566 16.513 1 10.9986 1ZM10.9986 20.0535C6.00655 20.0535 1.94355 15.9921 1.94355 10.9984C1.94355 6.00497 6.00655 1.94333 10.9986 1.94333C15.9923 1.94333 20.0553 6.00497 20.0553 10.9984C20.0553 15.9921 15.9923 20.0535 10.9986 20.0535Z" stroke="#525252" stroke-width="0.4" mask="url(#path-1-outside-1_4760_732)"/>
<path d="M11.0021 9.90272C10.3807 9.90272 9.87743 10.4046 9.87743 11.0274C9.87743 11.6458 10.3807 12.1493 11.0021 12.1493C11.6232 12.1493 12.1267 11.646 12.1267 11.0274C12.1267 10.4046 11.6234 9.90272 11.0021 9.90272Z" stroke="#525252" stroke-width="0.4" mask="url(#path-1-outside-1_4760_732)"/>
</svg>
