<svg width="20" height="20" viewBox="0 0 20 20" fill="none" xmlns="http://www.w3.org/2000/svg">
<mask id="path-1-outside-1_4759_711" maskUnits="userSpaceOnUse" x="0" y="0" width="20" height="20" fill="black">
<rect fill="white" width="20" height="20"/>
<path fill-rule="evenodd" clip-rule="evenodd" d="M11.8629 1.3656L12.3504 2.97783C13.0202 3.19118 13.6568 3.49775 14.2402 3.88786L15.8055 3.26437C15.9277 3.21604 16.0665 3.2409 16.1638 3.32859C16.9151 4.00248 17.5489 4.79789 18.0398 5.6803C18.1033 5.79492 18.0964 5.93577 18.0219 6.04418L17.0656 7.43063C17.3169 8.08726 17.4736 8.77565 17.5323 9.47578L18.9961 10.3105C19.11 10.3754 19.177 10.4997 19.1694 10.6302C19.1107 11.6383 18.8843 12.6298 18.4997 13.5633C18.45 13.6848 18.3353 13.767 18.2048 13.776L16.5243 13.8934C16.1673 14.4989 15.7275 15.0506 15.2165 15.5332L15.4761 17.1979C15.4962 17.3277 15.4416 17.4575 15.3339 17.5328C14.5095 18.1155 13.5932 18.5567 12.6238 18.8384C12.4982 18.875 12.3621 18.8371 12.2731 18.7404L11.1338 17.499C10.4385 17.5977 9.73217 17.5977 9.03618 17.499L7.89692 18.7404C7.80854 18.8371 7.67252 18.875 7.54617 18.8384C6.57676 18.5567 5.66051 18.1155 4.8361 17.5328C4.72908 17.4575 4.67384 17.3277 4.69386 17.1979L4.95417 15.5332C4.44323 15.0506 4.00271 14.4989 3.64643 13.8934L1.96516 13.776C1.83466 13.767 1.72004 13.6848 1.67033 13.5633C1.28574 12.6298 1.05996 11.6383 1.00058 10.6302C0.992984 10.4997 1.06065 10.3754 1.17458 10.3105L2.63767 9.47578C2.69636 8.77565 2.85378 8.08726 3.10442 7.43063L2.14813 6.04418C2.07356 5.93577 2.06665 5.79492 2.13087 5.6803C2.62109 4.79789 3.25494 4.00248 4.00616 3.32859C4.10421 3.2409 4.24299 3.21604 4.36451 3.26437L5.92979 3.88855C6.51392 3.49775 7.14984 3.19118 7.81959 2.97783L8.30775 1.3656C8.34572 1.23994 8.45136 1.14672 8.58117 1.12532C9.57682 0.958227 10.5932 0.958227 11.5895 1.12532C11.7186 1.14672 11.8243 1.23994 11.8629 1.3656ZM11.2643 1.77366C10.482 1.6625 9.68798 1.6625 8.90569 1.77366L8.42651 3.35482C8.39267 3.46668 8.30498 3.55368 8.19244 3.58613C7.47021 3.79603 6.78735 4.12469 6.17214 4.55899C6.07686 4.62666 5.95396 4.64116 5.84556 4.59766L4.31066 3.9866C3.73619 4.5293 3.24113 5.15003 2.83997 5.83082L3.77762 7.19103C3.8439 7.28701 3.85702 7.40991 3.81283 7.51831C3.52629 8.2143 3.35782 8.9531 3.31363 9.70432C3.30672 9.82101 3.24182 9.92596 3.14032 9.98396L1.70554 10.8028C1.77114 11.59 1.94789 12.364 2.23029 13.1028L3.87843 13.2174C3.99443 13.2257 4.09938 13.292 4.15599 13.3942C4.52125 14.0522 4.99422 14.6446 5.55418 15.1472C5.64118 15.2253 5.68261 15.3419 5.66465 15.4573L5.40987 17.0895C6.0665 17.5293 6.78182 17.8739 7.53512 18.1135L8.65229 16.8962C8.73169 16.8106 8.84907 16.7698 8.96369 16.7892C9.70593 16.9141 10.4641 16.9141 11.2063 16.7892C11.3216 16.7698 11.4383 16.8106 11.5177 16.8962L12.6349 18.1135C13.3882 17.8739 14.1035 17.5293 14.7608 17.0895L14.506 15.4573C14.4881 15.3419 14.5295 15.2253 14.6165 15.1472C15.1765 14.6446 15.6487 14.0522 16.014 13.3942C16.0713 13.292 16.1756 13.2257 16.2923 13.2174L17.9404 13.1021C18.2221 12.3647 18.3989 11.59 18.4651 10.8028L17.0304 9.98396C16.9289 9.92596 16.8633 9.82101 16.8564 9.70432C16.8129 8.9531 16.6437 8.2143 16.3579 7.51831C16.313 7.40991 16.3261 7.28701 16.3924 7.19103L17.33 5.83082C16.9289 5.15003 16.4338 4.5293 15.8593 3.9866L14.3244 4.59766C14.216 4.64116 14.0931 4.62666 13.9979 4.55899C13.3826 4.12469 12.7005 3.79603 11.9776 3.58613C11.865 3.55368 11.7773 3.46668 11.7435 3.35482L11.2643 1.77366ZM10.085 4.29454C13.2887 4.29454 15.8904 6.89552 15.8904 10.1C15.8904 13.3037 13.2887 15.9047 10.085 15.9047C6.88125 15.9047 4.28028 13.3037 4.28028 10.1C4.28028 6.89552 6.88125 4.29454 10.085 4.29454ZM5.10952 8.91236C5.01838 9.29349 4.97074 9.6912 4.97074 10.1C4.97074 10.2553 4.97764 10.4086 4.99076 10.5605H11.0192C11.1435 10.0813 11.5191 9.70363 11.9962 9.57589L12.0142 5.362C11.419 5.11896 10.7672 4.98501 10.085 4.98501C9.7301 4.98501 9.3828 5.0216 9.04792 5.09065L9.03895 7.23177C9.63689 7.3816 10.0802 7.92292 10.0802 8.56713C10.0802 9.32664 9.46358 9.94322 8.70407 9.94322C8.06401 9.94322 7.52476 9.50478 7.37148 8.91236H5.10952ZM8.35677 5.28467C6.97377 5.7818 5.86558 6.85892 5.32702 8.2219H7.37148C7.49576 7.74271 7.87137 7.36434 8.34848 7.2373L8.35677 5.28467ZM14.3859 12.868C14.901 12.0698 15.1999 11.1191 15.1999 10.1C15.1999 8.23363 14.1981 6.59931 12.7032 5.70585L12.6867 9.57037C13.2846 9.7202 13.7279 10.2615 13.7279 10.9057C13.7279 11.6652 13.1113 12.2818 12.3518 12.2818C11.7117 12.2818 11.1725 11.8434 11.0192 11.251H5.10055C5.57006 13.2885 7.25824 14.8628 9.35518 15.1624L9.35794 14.5479C8.76 14.3981 8.31672 13.8568 8.31672 13.2133C8.31672 12.4537 8.93331 11.8372 9.69281 11.8372C10.3329 11.8372 10.8721 12.2749 11.0254 12.868H14.3859ZM10.0456 15.2142C10.0588 15.2142 10.0719 15.2142 10.085 15.2142C11.575 15.2142 12.9166 14.5762 13.8522 13.5585H11.0254C10.9011 14.037 10.5255 14.4153 10.0484 14.5431L10.0456 15.2142ZM8.70407 7.88081C8.3257 7.88081 8.01844 8.18806 8.01844 8.56713C8.01844 8.9455 8.3257 9.25276 8.70407 9.25276C9.08245 9.25276 9.3897 8.9455 9.3897 8.56713C9.3897 8.18806 9.08245 7.88081 8.70407 7.88081ZM9.69281 13.8989C10.0712 13.8989 10.3784 13.5916 10.3784 13.2133C10.3784 12.8349 10.0712 12.5276 9.69281 12.5276C9.31444 12.5276 9.00718 12.8349 9.00718 13.2133C9.00718 13.5916 9.31444 13.8989 9.69281 13.8989ZM12.3518 10.2201C11.9734 10.2201 11.6662 10.5273 11.6662 10.9057C11.6662 11.2841 11.9734 11.5914 12.3518 11.5914C12.7302 11.5914 13.0374 11.2841 13.0374 10.9057C13.0374 10.5273 12.7302 10.2201 12.3518 10.2201Z"/>
</mask>
<path fill-rule="evenodd" clip-rule="evenodd" d="M11.8629 1.3656L12.3504 2.97783C13.0202 3.19118 13.6568 3.49775 14.2402 3.88786L15.8055 3.26437C15.9277 3.21604 16.0665 3.2409 16.1638 3.32859C16.9151 4.00248 17.5489 4.79789 18.0398 5.6803C18.1033 5.79492 18.0964 5.93577 18.0219 6.04418L17.0656 7.43063C17.3169 8.08726 17.4736 8.77565 17.5323 9.47578L18.9961 10.3105C19.11 10.3754 19.177 10.4997 19.1694 10.6302C19.1107 11.6383 18.8843 12.6298 18.4997 13.5633C18.45 13.6848 18.3353 13.767 18.2048 13.776L16.5243 13.8934C16.1673 14.4989 15.7275 15.0506 15.2165 15.5332L15.4761 17.1979C15.4962 17.3277 15.4416 17.4575 15.3339 17.5328C14.5095 18.1155 13.5932 18.5567 12.6238 18.8384C12.4982 18.875 12.3621 18.8371 12.2731 18.7404L11.1338 17.499C10.4385 17.5977 9.73217 17.5977 9.03618 17.499L7.89692 18.7404C7.80854 18.8371 7.67252 18.875 7.54617 18.8384C6.57676 18.5567 5.66051 18.1155 4.8361 17.5328C4.72908 17.4575 4.67384 17.3277 4.69386 17.1979L4.95417 15.5332C4.44323 15.0506 4.00271 14.4989 3.64643 13.8934L1.96516 13.776C1.83466 13.767 1.72004 13.6848 1.67033 13.5633C1.28574 12.6298 1.05996 11.6383 1.00058 10.6302C0.992984 10.4997 1.06065 10.3754 1.17458 10.3105L2.63767 9.47578C2.69636 8.77565 2.85378 8.08726 3.10442 7.43063L2.14813 6.04418C2.07356 5.93577 2.06665 5.79492 2.13087 5.6803C2.62109 4.79789 3.25494 4.00248 4.00616 3.32859C4.10421 3.2409 4.24299 3.21604 4.36451 3.26437L5.92979 3.88855C6.51392 3.49775 7.14984 3.19118 7.81959 2.97783L8.30775 1.3656C8.34572 1.23994 8.45136 1.14672 8.58117 1.12532C9.57682 0.958227 10.5932 0.958227 11.5895 1.12532C11.7186 1.14672 11.8243 1.23994 11.8629 1.3656ZM11.2643 1.77366C10.482 1.6625 9.68798 1.6625 8.90569 1.77366L8.42651 3.35482C8.39267 3.46668 8.30498 3.55368 8.19244 3.58613C7.47021 3.79603 6.78735 4.12469 6.17214 4.55899C6.07686 4.62666 5.95396 4.64116 5.84556 4.59766L4.31066 3.9866C3.73619 4.5293 3.24113 5.15003 2.83997 5.83082L3.77762 7.19103C3.8439 7.28701 3.85702 7.40991 3.81283 7.51831C3.52629 8.2143 3.35782 8.9531 3.31363 9.70432C3.30672 9.82101 3.24182 9.92596 3.14032 9.98396L1.70554 10.8028C1.77114 11.59 1.94789 12.364 2.23029 13.1028L3.87843 13.2174C3.99443 13.2257 4.09938 13.292 4.15599 13.3942C4.52125 14.0522 4.99422 14.6446 5.55418 15.1472C5.64118 15.2253 5.68261 15.3419 5.66465 15.4573L5.40987 17.0895C6.0665 17.5293 6.78182 17.8739 7.53512 18.1135L8.65229 16.8962C8.73169 16.8106 8.84907 16.7698 8.96369 16.7892C9.70593 16.9141 10.4641 16.9141 11.2063 16.7892C11.3216 16.7698 11.4383 16.8106 11.5177 16.8962L12.6349 18.1135C13.3882 17.8739 14.1035 17.5293 14.7608 17.0895L14.506 15.4573C14.4881 15.3419 14.5295 15.2253 14.6165 15.1472C15.1765 14.6446 15.6487 14.0522 16.014 13.3942C16.0713 13.292 16.1756 13.2257 16.2923 13.2174L17.9404 13.1021C18.2221 12.3647 18.3989 11.59 18.4651 10.8028L17.0304 9.98396C16.9289 9.92596 16.8633 9.82101 16.8564 9.70432C16.8129 8.9531 16.6437 8.2143 16.3579 7.51831C16.313 7.40991 16.3261 7.28701 16.3924 7.19103L17.33 5.83082C16.9289 5.15003 16.4338 4.5293 15.8593 3.9866L14.3244 4.59766C14.216 4.64116 14.0931 4.62666 13.9979 4.55899C13.3826 4.12469 12.7005 3.79603 11.9776 3.58613C11.865 3.55368 11.7773 3.46668 11.7435 3.35482L11.2643 1.77366ZM10.085 4.29454C13.2887 4.29454 15.8904 6.89552 15.8904 10.1C15.8904 13.3037 13.2887 15.9047 10.085 15.9047C6.88125 15.9047 4.28028 13.3037 4.28028 10.1C4.28028 6.89552 6.88125 4.29454 10.085 4.29454ZM5.10952 8.91236C5.01838 9.29349 4.97074 9.6912 4.97074 10.1C4.97074 10.2553 4.97764 10.4086 4.99076 10.5605H11.0192C11.1435 10.0813 11.5191 9.70363 11.9962 9.57589L12.0142 5.362C11.419 5.11896 10.7672 4.98501 10.085 4.98501C9.7301 4.98501 9.3828 5.0216 9.04792 5.09065L9.03895 7.23177C9.63689 7.3816 10.0802 7.92292 10.0802 8.56713C10.0802 9.32664 9.46358 9.94322 8.70407 9.94322C8.06401 9.94322 7.52476 9.50478 7.37148 8.91236H5.10952ZM8.35677 5.28467C6.97377 5.7818 5.86558 6.85892 5.32702 8.2219H7.37148C7.49576 7.74271 7.87137 7.36434 8.34848 7.2373L8.35677 5.28467ZM14.3859 12.868C14.901 12.0698 15.1999 11.1191 15.1999 10.1C15.1999 8.23363 14.1981 6.59931 12.7032 5.70585L12.6867 9.57037C13.2846 9.7202 13.7279 10.2615 13.7279 10.9057C13.7279 11.6652 13.1113 12.2818 12.3518 12.2818C11.7117 12.2818 11.1725 11.8434 11.0192 11.251H5.10055C5.57006 13.2885 7.25824 14.8628 9.35518 15.1624L9.35794 14.5479C8.76 14.3981 8.31672 13.8568 8.31672 13.2133C8.31672 12.4537 8.93331 11.8372 9.69281 11.8372C10.3329 11.8372 10.8721 12.2749 11.0254 12.868H14.3859ZM10.0456 15.2142C10.0588 15.2142 10.0719 15.2142 10.085 15.2142C11.575 15.2142 12.9166 14.5762 13.8522 13.5585H11.0254C10.9011 14.037 10.5255 14.4153 10.0484 14.5431L10.0456 15.2142ZM8.70407 7.88081C8.3257 7.88081 8.01844 8.18806 8.01844 8.56713C8.01844 8.9455 8.3257 9.25276 8.70407 9.25276C9.08245 9.25276 9.3897 8.9455 9.3897 8.56713C9.3897 8.18806 9.08245 7.88081 8.70407 7.88081ZM9.69281 13.8989C10.0712 13.8989 10.3784 13.5916 10.3784 13.2133C10.3784 12.8349 10.0712 12.5276 9.69281 12.5276C9.31444 12.5276 9.00718 12.8349 9.00718 13.2133C9.00718 13.5916 9.31444 13.8989 9.69281 13.8989ZM12.3518 10.2201C11.9734 10.2201 11.6662 10.5273 11.6662 10.9057C11.6662 11.2841 11.9734 11.5914 12.3518 11.5914C12.7302 11.5914 13.0374 11.2841 13.0374 10.9057C13.0374 10.5273 12.7302 10.2201 12.3518 10.2201Z" fill="#525252"/>
<path fill-rule="evenodd" clip-rule="evenodd" d="M11.8629 1.3656L12.3504 2.97783C13.0202 3.19118 13.6568 3.49775 14.2402 3.88786L15.8055 3.26437C15.9277 3.21604 16.0665 3.2409 16.1638 3.32859C16.9151 4.00248 17.5489 4.79789 18.0398 5.6803C18.1033 5.79492 18.0964 5.93577 18.0219 6.04418L17.0656 7.43063C17.3169 8.08726 17.4736 8.77565 17.5323 9.47578L18.9961 10.3105C19.11 10.3754 19.177 10.4997 19.1694 10.6302C19.1107 11.6383 18.8843 12.6298 18.4997 13.5633C18.45 13.6848 18.3353 13.767 18.2048 13.776L16.5243 13.8934C16.1673 14.4989 15.7275 15.0506 15.2165 15.5332L15.4761 17.1979C15.4962 17.3277 15.4416 17.4575 15.3339 17.5328C14.5095 18.1155 13.5932 18.5567 12.6238 18.8384C12.4982 18.875 12.3621 18.8371 12.2731 18.7404L11.1338 17.499C10.4385 17.5977 9.73217 17.5977 9.03618 17.499L7.89692 18.7404C7.80854 18.8371 7.67252 18.875 7.54617 18.8384C6.57676 18.5567 5.66051 18.1155 4.8361 17.5328C4.72908 17.4575 4.67384 17.3277 4.69386 17.1979L4.95417 15.5332C4.44323 15.0506 4.00271 14.4989 3.64643 13.8934L1.96516 13.776C1.83466 13.767 1.72004 13.6848 1.67033 13.5633C1.28574 12.6298 1.05996 11.6383 1.00058 10.6302C0.992984 10.4997 1.06065 10.3754 1.17458 10.3105L2.63767 9.47578C2.69636 8.77565 2.85378 8.08726 3.10442 7.43063L2.14813 6.04418C2.07356 5.93577 2.06665 5.79492 2.13087 5.6803C2.62109 4.79789 3.25494 4.00248 4.00616 3.32859C4.10421 3.2409 4.24299 3.21604 4.36451 3.26437L5.92979 3.88855C6.51392 3.49775 7.14984 3.19118 7.81959 2.97783L8.30775 1.3656C8.34572 1.23994 8.45136 1.14672 8.58117 1.12532C9.57682 0.958227 10.5932 0.958227 11.5895 1.12532C11.7186 1.14672 11.8243 1.23994 11.8629 1.3656ZM11.2643 1.77366C10.482 1.6625 9.68798 1.6625 8.90569 1.77366L8.42651 3.35482C8.39267 3.46668 8.30498 3.55368 8.19244 3.58613C7.47021 3.79603 6.78735 4.12469 6.17214 4.55899C6.07686 4.62666 5.95396 4.64116 5.84556 4.59766L4.31066 3.9866C3.73619 4.5293 3.24113 5.15003 2.83997 5.83082L3.77762 7.19103C3.8439 7.28701 3.85702 7.40991 3.81283 7.51831C3.52629 8.2143 3.35782 8.9531 3.31363 9.70432C3.30672 9.82101 3.24182 9.92596 3.14032 9.98396L1.70554 10.8028C1.77114 11.59 1.94789 12.364 2.23029 13.1028L3.87843 13.2174C3.99443 13.2257 4.09938 13.292 4.15599 13.3942C4.52125 14.0522 4.99422 14.6446 5.55418 15.1472C5.64118 15.2253 5.68261 15.3419 5.66465 15.4573L5.40987 17.0895C6.0665 17.5293 6.78182 17.8739 7.53512 18.1135L8.65229 16.8962C8.73169 16.8106 8.84907 16.7698 8.96369 16.7892C9.70593 16.9141 10.4641 16.9141 11.2063 16.7892C11.3216 16.7698 11.4383 16.8106 11.5177 16.8962L12.6349 18.1135C13.3882 17.8739 14.1035 17.5293 14.7608 17.0895L14.506 15.4573C14.4881 15.3419 14.5295 15.2253 14.6165 15.1472C15.1765 14.6446 15.6487 14.0522 16.014 13.3942C16.0713 13.292 16.1756 13.2257 16.2923 13.2174L17.9404 13.1021C18.2221 12.3647 18.3989 11.59 18.4651 10.8028L17.0304 9.98396C16.9289 9.92596 16.8633 9.82101 16.8564 9.70432C16.8129 8.9531 16.6437 8.2143 16.3579 7.51831C16.313 7.40991 16.3261 7.28701 16.3924 7.19103L17.33 5.83082C16.9289 5.15003 16.4338 4.5293 15.8593 3.9866L14.3244 4.59766C14.216 4.64116 14.0931 4.62666 13.9979 4.55899C13.3826 4.12469 12.7005 3.79603 11.9776 3.58613C11.865 3.55368 11.7773 3.46668 11.7435 3.35482L11.2643 1.77366ZM10.085 4.29454C13.2887 4.29454 15.8904 6.89552 15.8904 10.1C15.8904 13.3037 13.2887 15.9047 10.085 15.9047C6.88125 15.9047 4.28028 13.3037 4.28028 10.1C4.28028 6.89552 6.88125 4.29454 10.085 4.29454ZM5.10952 8.91236C5.01838 9.29349 4.97074 9.6912 4.97074 10.1C4.97074 10.2553 4.97764 10.4086 4.99076 10.5605H11.0192C11.1435 10.0813 11.5191 9.70363 11.9962 9.57589L12.0142 5.362C11.419 5.11896 10.7672 4.98501 10.085 4.98501C9.7301 4.98501 9.3828 5.0216 9.04792 5.09065L9.03895 7.23177C9.63689 7.3816 10.0802 7.92292 10.0802 8.56713C10.0802 9.32664 9.46358 9.94322 8.70407 9.94322C8.06401 9.94322 7.52476 9.50478 7.37148 8.91236H5.10952ZM8.35677 5.28467C6.97377 5.7818 5.86558 6.85892 5.32702 8.2219H7.37148C7.49576 7.74271 7.87137 7.36434 8.34848 7.2373L8.35677 5.28467ZM14.3859 12.868C14.901 12.0698 15.1999 11.1191 15.1999 10.1C15.1999 8.23363 14.1981 6.59931 12.7032 5.70585L12.6867 9.57037C13.2846 9.7202 13.7279 10.2615 13.7279 10.9057C13.7279 11.6652 13.1113 12.2818 12.3518 12.2818C11.7117 12.2818 11.1725 11.8434 11.0192 11.251H5.10055C5.57006 13.2885 7.25824 14.8628 9.35518 15.1624L9.35794 14.5479C8.76 14.3981 8.31672 13.8568 8.31672 13.2133C8.31672 12.4537 8.93331 11.8372 9.69281 11.8372C10.3329 11.8372 10.8721 12.2749 11.0254 12.868H14.3859ZM10.0456 15.2142C10.0588 15.2142 10.0719 15.2142 10.085 15.2142C11.575 15.2142 12.9166 14.5762 13.8522 13.5585H11.0254C10.9011 14.037 10.5255 14.4153 10.0484 14.5431L10.0456 15.2142ZM8.70407 7.88081C8.3257 7.88081 8.01844 8.18806 8.01844 8.56713C8.01844 8.9455 8.3257 9.25276 8.70407 9.25276C9.08245 9.25276 9.3897 8.9455 9.3897 8.56713C9.3897 8.18806 9.08245 7.88081 8.70407 7.88081ZM9.69281 13.8989C10.0712 13.8989 10.3784 13.5916 10.3784 13.2133C10.3784 12.8349 10.0712 12.5276 9.69281 12.5276C9.31444 12.5276 9.00718 12.8349 9.00718 13.2133C9.00718 13.5916 9.31444 13.8989 9.69281 13.8989ZM12.3518 10.2201C11.9734 10.2201 11.6662 10.5273 11.6662 10.9057C11.6662 11.2841 11.9734 11.5914 12.3518 11.5914C12.7302 11.5914 13.0374 11.2841 13.0374 10.9057C13.0374 10.5273 12.7302 10.2201 12.3518 10.2201Z" stroke="#525252" stroke-width="0.4" mask="url(#path-1-outside-1_4759_711)"/>
</svg>
